<?xml version="1.0" ?><svg id="Layer_1_1_" style="enable-background:new 0 0 64 64;" version="1.1" viewBox="0 0 64 64" xml:space="preserve" xmlns="http://www.w3.org/2000/svg" xmlns:xlink="http://www.w3.org/1999/xlink"><path d="M17,49L17,49c-0.552,0-1,0.448-1,1l0,0c0,0.552,0.448,1,1,1h0c0.552,0,1-0.448,1-1l0,0C18,49.448,17.552,49,17,49z"/><path d="M18,56v-1.101c0.637-0.13,1.228-0.384,1.753-0.732l0.783,0.783l1.414-1.414l-0.782-0.782  c0.348-0.525,0.602-1.116,0.732-1.753H23v-2h-1.101c-0.13-0.637-0.384-1.229-0.732-1.753l0.782-0.782l-1.414-1.414l-0.783,0.783  c-0.524-0.347-1.116-0.602-1.753-0.732V44h-2v1.101c-0.637,0.13-1.228,0.384-1.753,0.732l-0.783-0.783l-1.414,1.414l0.782,0.782  c-0.348,0.525-0.602,1.116-0.732,1.753H11v2h1.101c0.13,0.637,0.384,1.229,0.732,1.753l-0.782,0.782l1.414,1.414l0.783-0.783  c0.524,0.347,1.116,0.602,1.753,0.732V56H18z M14,50c0-1.654,1.346-3,3-3s3,1.346,3,3s-1.346,3-3,3S14,51.654,14,50z"/><path d="M3,51.303V62c0,0.552,0.447,1,1,1h8c0.553,0,1-0.448,1-1v-3h-2v2H5V51c0-0.197-0.059-0.391-0.168-0.555L3,47.697V40  c0-1.103,0.897-2,2-2h6c1.103,0,2,0.897,2,2h2c0-1.971-1.436-3.604-3.315-3.931c0.51-0.73,0.815-1.613,0.815-2.569  c0-2.481-2.019-4.5-4.5-4.5s-4.5,2.019-4.5,4.5c0,0.956,0.305,1.84,0.815,2.569C2.436,36.396,1,38.029,1,40v8  c0,0.197,0.059,0.391,0.168,0.555L3,51.303z M8,31c1.379,0,2.5,1.122,2.5,2.5S9.379,36,8,36s-2.5-1.122-2.5-2.5S6.621,31,8,31z"/><path d="M59.685,36.069c0.51-0.73,0.815-1.613,0.815-2.569c0-2.481-2.019-4.5-4.5-4.5s-4.5,2.019-4.5,4.5  c0,0.956,0.305,1.84,0.815,2.569C50.436,36.396,49,38.029,49,40v8c0,0.197,0.059,0.391,0.168,0.555L51,51.303V62  c0,0.552,0.447,1,1,1h8c0.553,0,1-0.448,1-1V51.303l1.832-2.748C62.941,48.391,63,48.197,63,48v-8  C63,38.029,61.564,36.396,59.685,36.069z M56,31c1.379,0,2.5,1.122,2.5,2.5S57.379,36,56,36s-2.5-1.122-2.5-2.5S54.621,31,56,31z   M61,47.697l-1.832,2.748C59.059,50.609,59,50.803,59,51v10h-6V51c0-0.197-0.059-0.391-0.168-0.555L51,47.697V40  c0-1.103,0.897-2,2-2h6c1.103,0,2,0.897,2,2V47.697z"/><path d="M26,50c0-4.962-4.037-9-9-9s-9,4.038-9,9s4.037,9,9,9S26,54.962,26,50z M10,50c0-3.86,3.141-7,7-7s7,3.14,7,7s-3.141,7-7,7  S10,53.86,10,50z"/><path d="M47,45c0-0.315-0.148-0.611-0.4-0.8l-4-3c-0.303-0.228-0.709-0.265-1.047-0.095C41.214,41.275,41,41.621,41,42v2H28v2h13v2  c0,0.379,0.214,0.725,0.553,0.895C41.694,48.965,41.848,49,42,49c0.212,0,0.424-0.068,0.6-0.2l4-3C46.852,45.611,47,45.315,47,45z   M43,46v-2l1.333,1L43,46z"/><path d="M48.723,14l4.763,2.857C53.641,16.951,53.818,17,54,17h5v-2h-4.723l-4.763-2.857C49.359,12.049,49.182,12,49,12H38  c-1.103,0-2,0.897-2,2v1h-1c-1.103,0-2,0.897-2,2v1c-0.366,0-0.705,0.106-1,0.278C31.705,18.106,31.366,18,31,18v-1  c0-1.103-0.897-2-2-2h-1v-1c0-1.103-0.897-2-2-2H15c-0.182,0-0.359,0.049-0.515,0.143L9.723,15H5v2h5  c0.182,0,0.359-0.049,0.515-0.143L15.277,14H26v1h-5v2h8v1h-8v2h10v1H21v2h8v1H18c-0.431,0-0.812,0.275-0.948,0.684  c-0.137,0.409,0.004,0.858,0.349,1.116l3.332,2.499l-0.239,0.478l-5.008-1.669l-4.86-3.889C10.447,23.077,10.228,23,10,23H5v2h4.649  l4.726,3.781c0.093,0.074,0.197,0.13,0.309,0.168l5.177,1.726c0.206,0.069,0.417,0.102,0.626,0.102c0.741,0,1.45-0.414,1.796-1.104  l0.239-0.479c0.432-0.865,0.184-1.914-0.59-2.494L21,26h8c1.103,0,2-0.897,2-2v-1c0.366,0,0.705-0.106,1-0.278  C32.295,22.894,32.634,23,33,23v1c0,1.103,0.897,2,2,2h8l-0.932,0.699c-0.773,0.58-1.021,1.628-0.59,2.495l0.239,0.477  c0.346,0.69,1.055,1.104,1.796,1.104c0.209,0,0.42-0.033,0.626-0.102l5.177-1.726c0.111-0.038,0.216-0.094,0.309-0.168L54.351,25H59  v-2h-5c-0.228,0-0.447,0.077-0.625,0.219l-4.86,3.889l-5.008,1.668l-0.239-0.478L46.6,25.8c0.345-0.258,0.485-0.708,0.349-1.116  C46.812,24.275,46.431,24,46,24H35v-1h8v-2H33v-1h10v-2h-8v-1h8v-2h-5v-1H48.723z"/><path d="M36.97,9.243l1-4c0.075-0.299,0.008-0.615-0.182-0.858S37.308,4,37,4h-1.683l0.763-2.731l-1.926-0.538l-1.117,4  c-0.084,0.301-0.022,0.625,0.166,0.874C33.393,5.854,33.688,6,34,6h1.719L35.03,8.757L36.97,9.243z"/><path d="M29.97,9.243l1-4c0.075-0.299,0.008-0.615-0.182-0.858S30.308,4,30,4h-1.683l0.763-2.731l-1.926-0.538l-1.117,4  c-0.084,0.301-0.022,0.625,0.166,0.874C26.393,5.854,26.688,6,27,6h1.719L28.03,8.757L29.97,9.243z"/></svg>